<svg xmlns="http://www.w3.org/2000/svg" viewBox="0 0 779.21 1114.25"><defs><style>.cls-1{fill:#a1a1a1;}.cls-2{fill:#d8d8d8;}.cls-3{fill:red;}.cls-4,.cls-5{fill:none;stroke:#888;stroke-miterlimit:10;}.cls-4{stroke-width:2px;}.cls-5{stroke-width:8px;}</style></defs><title>Artboard 29</title><g id="Header"><g id="Lorem"><rect class="cls-1" x="44.47" width="126.15" height="126.15"/><rect class="cls-1" x="192.29" width="149.09" height="33.7"/><rect class="cls-2" x="192.29" y="48.66" width="227.88" height="33.7"/><rect class="cls-2" x="441.83" y="48.66" width="149.09" height="33.7"/><rect class="cls-3" x="192.29" y="94.89" width="74.55" height="33.7"/><rect class="cls-2" x="286.9" y="94.89" width="173.76" height="33.7"/><rect class="cls-2" x="481.73" y="94.89" width="173.76" height="33.7"/><rect class="cls-1" x="44.47" y="196.16" width="126.15" height="126.15"/><rect class="cls-1" x="192.29" y="196.16" width="149.09" height="33.7"/><rect class="cls-2" x="192.29" y="244.82" width="149.09" height="33.7"/><rect class="cls-2" x="363.83" y="244.82" width="74.55" height="33.7"/><rect class="cls-2" x="460.66" y="244.82" width="74.55" height="33.7"/><rect class="cls-2" x="553.65" y="244.82" width="125.39" height="33.7"/><rect class="cls-2" x="192.29" y="291.04" width="376.32" height="33.7"/><line class="cls-4" x1="779.21" y1="162.37" y2="162.37"/><line class="cls-4" x1="779.21" y1="356.09" y2="356.09"/><polyline class="cls-5" points="709.57 11.14 723.39 24.96 737.21 11.14"/><polyline class="cls-5" points="709.57 196.16 723.39 209.98 737.21 196.16"/><rect class="cls-1" x="44.47" y="394.75" width="126.15" height="126.15"/><rect class="cls-1" x="192.29" y="394.75" width="149.09" height="33.7"/><rect class="cls-2" x="192.29" y="443.41" width="383.42" height="33.7"/><rect class="cls-2" x="192.29" y="489.64" width="74.55" height="33.7"/><rect class="cls-2" x="286.9" y="489.64" width="362.33" height="33.7"/><rect class="cls-1" x="44.47" y="590.91" width="126.15" height="126.15"/><rect class="cls-1" x="192.29" y="590.91" width="149.09" height="33.7"/><rect class="cls-2" x="192.29" y="639.57" width="149.09" height="33.7"/><rect class="cls-2" x="362.48" y="639.57" width="170.06" height="33.7"/><rect class="cls-2" x="553.65" y="639.57" width="125.39" height="33.7"/><rect class="cls-3" x="192.29" y="685.79" width="428.23" height="33.7"/><line class="cls-4" x1="779.21" y1="557.13" y2="557.13"/><line class="cls-4" x1="779.21" y1="750.84" y2="750.84"/><polyline class="cls-5" points="709.57 405.89 723.39 419.71 737.21 405.89"/><polyline class="cls-5" points="709.57 590.91 723.39 604.73 737.21 590.91"/><rect class="cls-1" x="44.47" y="789.5" width="126.15" height="126.15"/><rect class="cls-1" x="192.29" y="789.5" width="149.09" height="33.7"/><rect class="cls-2" x="192.29" y="838.17" width="133.95" height="33.7"/><rect class="cls-2" x="345.38" y="838.17" width="149.09" height="33.7"/><rect class="cls-2" x="192.29" y="884.39" width="271.96" height="33.7"/><rect class="cls-2" x="513.37" y="838.17" width="74.55" height="33.7"/><rect class="cls-2" x="481.73" y="884.39" width="173.76" height="33.7"/><rect class="cls-2" x="421.93" y="1080.55" width="271.96" height="33.7"/><rect class="cls-1" x="44.47" y="985.66" width="126.15" height="126.15"/><rect class="cls-1" x="192.29" y="985.66" width="149.09" height="33.7"/><rect class="cls-2" x="192.29" y="1034.32" width="149.09" height="33.7"/><rect class="cls-2" x="362.23" y="1034.32" width="74.55" height="33.7"/><rect class="cls-2" x="457.63" y="1034.32" width="221.41" height="33.7"/><rect class="cls-2" x="192.29" y="1080.55" width="207.22" height="33.7"/><line class="cls-4" x1="779.21" y1="951.88" y2="951.88"/><polyline class="cls-5" points="709.57 800.64 723.39 814.47 737.21 800.64"/><polyline class="cls-5" points="709.57 985.66 723.39 999.48 737.21 985.66"/></g></g></svg>