<svg xmlns="http://www.w3.org/2000/svg" viewBox="0 0 90.67 92.2"><defs><style>.cls-1{fill:#777;}.cls-2{fill:#2c63ed;stroke-width:0.77px;}.cls-2,.cls-3{stroke:#262bb4;stroke-miterlimit:10;}.cls-3{fill:#262bb4;stroke-width:0.6px;}.cls-4{fill:#076796;}.cls-5{fill:#f0d589;}</style></defs><title>Artboard 22</title><g id="Header"><g id="Lorem"><path class="cls-1" d="M28.07,26.8a56.52,56.52,0,0,0-6,4.67c-5.45,4.72-9.8,10.36-13.88,16.44a25.68,25.68,0,0,1,1-9,35.15,35.15,0,0,1,11-17.26,40.64,40.64,0,0,1,19.47-9.43,44.49,44.49,0,0,1,12.69-.55c.43,0,.73-.25,1.06-.46a69.84,69.84,0,0,1,14.9-7.11,41.66,41.66,0,0,1,9-1.71A11.94,11.94,0,0,1,89.8,10.18a16,16,0,0,1,.76,7.13c-.17,1.49-.34,3-.56,4.47-.08.54-.21,1-.94,1-.55,0-.68,0-.57-.73a19.56,19.56,0,0,0,.07-8,8.65,8.65,0,0,0-7.19-6.4C77,7,73,8.25,69.08,9.69a57.14,57.14,0,0,0-6.7,3.09c-.27.14-.68.21-.64.61s.45.27.68.35A40.08,40.08,0,0,1,79.58,25.2a33.63,33.63,0,0,1,8.05,16.32,41.09,41.09,0,0,1,.44,9.84c-.05,1-.35,1.44-1.5,1.43-16.48,0-33,0-49.44-.06-1.22,0-1.49.38-1.39,1.48.51,5.59,3.44,10,9.16,11.79s12.45-1.48,14.61-6.92c.27-.69.53-1.11,1.42-1.11,8.32,0,16.64,0,25,0,.19,0,.39,0,.66,0a33.18,33.18,0,0,1-5.06,9.74A39.39,39.39,0,0,1,62.36,81.64a40.94,40.94,0,0,1-10,2.1,44.1,44.1,0,0,1-10.7-.27,3.44,3.44,0,0,0-2.33.75A63.81,63.81,0,0,1,24.19,91a25.51,25.51,0,0,1-9.87,1.11C8.63,91.37,5,88.45,3.87,82.62A27.35,27.35,0,0,1,5,69.69c2.55-8.68,7-16.43,12.12-23.76A123.07,123.07,0,0,1,28.71,31.76c1.4-1.47,2.88-2.87,4.17-4.44l6.88-6.14A34.55,34.55,0,0,0,28.07,26.8ZM13.14,65.47c-.37.86-.67,1.49-.93,2.14a36.59,36.59,0,0,0-2.57,10,11.92,11.92,0,0,0,1.43,7.71c2.42,3.87,6.34,4.36,10.88,3.81a35.71,35.71,0,0,0,10.92-3.51c1.69-.8,3.33-1.72,5.2-2.7C27.5,80.14,19.19,74.65,13.14,65.47Zm34.9-24h0c3.8,0,7.6,0,11.4,0,.86,0,1.16-.26,1-1.08,0-.27,0-.57,0-.84a12.36,12.36,0,0,0-24.51,1c-.06.86.16.88.82.88C40.53,41.44,44.29,41.45,48,41.45Z"/><path class="cls-1" d="M50.35,83.24c-27.7,0-36.26-30-36.75-33.39-.72-5-1.48-29.19,19.88-36C11.32,19.63,8.4,40.39,8,48.17,7.62,57,17.5,83.85,45.21,83.85c5,0,9.55-.08,13.29-1.36A43.06,43.06,0,0,1,50.35,83.24Z"/><path class="cls-1" d="M3.56,77S-2.37,65.47,8.19,47.91C23,23.35,39.76,21.18,39.76,21.18S7.46,47.51,3.56,77Z"/><path class="cls-2" d="M26.17,24.9a56.52,56.52,0,0,0-6,4.67C14.73,34.29,10.38,39.94,6.29,46a25.68,25.68,0,0,1,1-9,35.15,35.15,0,0,1,11-17.26,40.64,40.64,0,0,1,19.47-9.43A44.49,44.49,0,0,1,50.5,9.73c.43,0,.73-.25,1.06-.46a69.84,69.84,0,0,1,14.9-7.11,41.66,41.66,0,0,1,9-1.71A11.94,11.94,0,0,1,87.9,8.28a16,16,0,0,1,.76,7.13c-.17,1.49-.34,3-.56,4.47-.08.54-.21,1-.94,1-.55,0-.68,0-.57-.73a19.56,19.56,0,0,0,.07-8,8.65,8.65,0,0,0-7.19-6.4c-4.34-.61-8.33.66-12.29,2.09a57.14,57.14,0,0,0-6.7,3.09c-.27.14-.68.21-.64.61s.45.27.68.35A40.08,40.08,0,0,1,77.69,23.31a33.63,33.63,0,0,1,8.05,16.32,41.09,41.09,0,0,1,.44,9.84c-.05,1-.35,1.44-1.5,1.43-16.48,0-33,0-49.44-.06-1.22,0-1.49.38-1.39,1.48.51,5.59,3.44,10,9.16,11.79s12.45-1.48,14.61-6.92c.27-.69.53-1.11,1.42-1.11,8.32,0,16.64,0,25,0,.19,0,.39,0,.66,0A33.18,33.18,0,0,1,79.6,65.9,39.39,39.39,0,0,1,60.46,79.74a40.94,40.94,0,0,1-10,2.1,44.1,44.1,0,0,1-10.7-.27,3.44,3.44,0,0,0-2.33.75,63.81,63.81,0,0,1-15.18,6.75,25.51,25.51,0,0,1-9.87,1.11C6.73,89.47,3.08,86.55,2,80.72a27.35,27.35,0,0,1,1.1-12.93C5.62,59.11,10,51.37,15.18,44A123.07,123.07,0,0,1,26.81,29.86C28.21,28.4,29.69,27,31,25.42l6.88-6.14A34.55,34.55,0,0,0,26.17,24.9ZM11.24,63.57c-.37.86-.67,1.49-.93,2.14a36.59,36.59,0,0,0-2.57,10,11.92,11.92,0,0,0,1.43,7.71c2.42,3.87,6.34,4.36,10.88,3.81A35.71,35.71,0,0,0,31,83.67c1.69-.8,3.33-1.72,5.2-2.7C25.6,78.24,17.29,72.75,11.24,63.57Zm34.9-24h0c3.8,0,7.6,0,11.4,0,.86,0,1.16-.26,1-1.08,0-.27,0-.57,0-.84a12.36,12.36,0,0,0-24.51,1c-.06.86.16.88.82.88C38.63,39.54,42.39,39.56,46.15,39.56Z"/><path class="cls-3" d="M11.28,47.41a4.71,4.71,0,0,1,.31-.36C11,40.6,11.28,18.42,31.58,12,9.42,17.73,6.5,38.49,6.14,46.28A24,24,0,0,0,7.22,53.5,59.29,59.29,0,0,1,11.28,47.41Z"/><path class="cls-3" d="M48.45,81.34c-19.38,0-29.27-14.42-33.71-24.4-1.23,2-2.36,4.1-3.44,6.21,5.45,9.56,15.51,18.8,32,18.8,5,0,9.55-.08,13.29-1.36A43.06,43.06,0,0,1,48.45,81.34Z"/><path class="cls-4" d="M10.14,43.1a19,19,0,0,0,.19,4.21c.85-1.13,1.7-2.27,2.5-3.44A4.48,4.48,0,0,1,15.51,42c.08-8.1,2.84-26.14,21.53-31.2C14,15.12,10.84,35.33,10.14,43.1Z"/><path class="cls-4" d="M49.44,81.09C32.5,80.71,23,60.84,18.57,50.86a25.13,25.13,0,0,0-3.77,5.46C19.3,67.48,32,81.71,44.31,81.7c5,0,9.55-.08,13.29-1.36A38.26,38.26,0,0,1,49.44,81.09Z"/><path class="cls-5" d="M1.66,75.12S-4.27,63.57,6.29,46C21.07,21.45,37.87,19.28,37.87,19.28S5.56,45.61,1.66,75.12Z"/></g></g></svg>