<svg xmlns="http://www.w3.org/2000/svg" viewBox="0 0 82.05 88.56"><defs><style>.cls-1{fill:#555;}.cls-2{fill:#e7e2b3;}.cls-3{fill:#ddcc8d;}.cls-4{fill:#eeedcb;}.cls-5{fill:#ede8b8;}.cls-6{fill:#ffffe5;stroke:#f1eec1;}.cls-6,.cls-7,.cls-8{stroke-miterlimit:10;}.cls-7,.cls-8{fill:none;}.cls-7{stroke:#000;stroke-width:2px;opacity:0.7;}.cls-8{stroke:#ddcc8d;stroke-width:1.67px;}</style></defs><title>Artboard 16</title><g id="Header"><g id="Lorem"><rect class="cls-1" y="33.83" width="82.05" height="54.73"/><rect class="cls-2" y="33.83" width="81.01" height="52.88"/><rect class="cls-3" x="1.34" y="35.96" width="79.67" height="50.75"/><rect class="cls-4" x="1.34" y="35.96" width="78.48" height="49"/><rect class="cls-5" x="2.53" y="37.71" width="77.29" height="47.25"/><polyline class="cls-3" points="2.53 37.71 40.57 66.83 79.82 37.71"/><polyline class="cls-3" points="82.05 33.83 39.27 0 0 33.83"/><polygon class="cls-6" points="47.87 22.73 19.13 22.73 19.13 50.58 40.46 66.83 61.41 51.57 61.16 22.73 47.87 22.73"/><line class="cls-7" x1="27.63" y1="32.23" x2="53.63" y2="32.23"/><line class="cls-7" x1="27.63" y1="40.23" x2="53.63" y2="40.23"/><line class="cls-7" x1="27.63" y1="48.23" x2="53.63" y2="48.23"/><line class="cls-8" x1="79.82" y1="84.96" x2="52.95" y2="58.1"/><line class="cls-8" x1="2.77" y1="84.96" x2="29.64" y2="58.1"/></g></g></svg>