<svg xmlns="http://www.w3.org/2000/svg" viewBox="0 0 435.34 435.34"><defs><style>.cls-1{fill:#588ffe;}.cls-2{fill:#fff;}</style></defs><title>Artboard 30</title><g id="Header"><g id="Lorem"><circle class="cls-1" cx="217.67" cy="217.67" r="217.67"/><path class="cls-2" d="M171.78,204.28c5.69-5.89,17.13-24.7,21.64-31.61,9.91-15.21,22.89-27.09,25.26-45.23,1-7.6,2.85-15.05,3.81-22.68.77-6.1,6.74-10.41,13.33-10.42,7.1,0,12.73,4.32,13.85,11.44,2.73,17.48,5.76,34.93,4.68,52.79-.5,8.29-2.74,15.66-8.12,22a11.94,11.94,0,0,0-.73,1c0,.06,0,.18,0,.64h70.84a38.21,38.21,0,0,1,7.64.58c7,1.42,11.24,6.48,11.32,13.61,0,2.66.06,5.33.07,8a14.32,14.32,0,0,1-14.2,14.72c-.6,0-1.2.06-2.77.15,9.68,4.27,14.42,10.66,11.4,20.64-1.94,6.42-7.16,9.75-13.94,10.1.79,1,1.77,2.42,2.92,3.67,4.13,4.5,5.28,9.66,3.17,15.34s-6.12,9.09-12.24,9.82c-.89.11-2-.12-2.34,1-.26.94.76,1.37,1.34,1.88,4.3,3.78,7.6,7.95,7.2,14.2-.53,8.18-6.94,14.81-15.15,14.83-34.45.08-68.89.26-103.34-.11-10-.11-19.48-3.58-28-9.18-2.45-.84-2.2-3-2.21-4.87-.07-10.95,0-21.9,0-32.85a80.51,80.51,0,0,1,.18-9.5,3.08,3.08,0,0,1,.42-1c1-.82,1.33,0,1.31.71a12,12,0,0,1-.26,3.68C170.66,236.25,164.52,224.37,171.78,204.28Z"/><path class="cls-2" d="M168.24,253l-.06-48c5.57-2.3,10.36-5.89,15.23-9.33,1.24.83.18,1.62-.08,2.38-5.23,15.33-9.66,30.86-12.11,46.91-.69,4.5-1.42,9-2.14,13.51C168.2,256.72,169.55,254.63,168.24,253Z"/><rect class="cls-2" x="103.96" y="192.07" width="43.42" height="130.99" rx="11.54" ry="11.54"/><rect class="cls-2" x="161.81" y="202.59" width="63.22" height="108.26" rx="13.22" ry="13.22"/></g></g></svg>