<svg xmlns="http://www.w3.org/2000/svg" viewBox="0 0 786.4 684.8"><defs><style>.cls-1{fill:#c1c1c1;}.cls-11,.cls-12,.cls-14,.cls-15,.cls-16,.cls-2,.cls-3,.cls-4{fill:none;stroke-miterlimit:10;}.cls-2{stroke:#fefefe;}.cls-14,.cls-15,.cls-16,.cls-2,.cls-3,.cls-4{stroke-width:2px;}.cls-3{stroke:#313131;}.cls-4{stroke:#7f7f7f;}.cls-5{fill:#666;}.cls-6{fill:#3f3f3f;}.cls-7{fill:#d3d3d3;}.cls-8{fill:#8c8c8c;}.cls-9{fill:#e8e8e8;}.cls-10{fill:#d4d4d4;}.cls-11,.cls-12{stroke:#000;}.cls-11{stroke-width:2.02px;}.cls-12{stroke-width:1.51px;}.cls-13{fill:#fff;}.cls-14{stroke:gray;}.cls-15{stroke:#e6e6e6;}.cls-16{stroke:#a3a3a3;}.cls-17{fill:#d5d5d5;}.cls-18{fill:#8d8d8d;}</style></defs><title>Artboard 26</title><g id="Header"><g id="Lorem"><rect class="cls-1" width="786.01" height="683"/><polyline class="cls-2" points="784.4 3.8 5.4 3.8 5.4 683.8"/><polyline class="cls-3" points="785.4 2.8 785.4 683.8 0.4 683.8"/><polyline class="cls-4" points="783.4 4.8 783.4 681.8 5.4 681.8"/><rect class="cls-5" x="14.4" y="14.06" width="761" height="35.68"/><rect class="cls-6" x="741.49" y="17.64" width="29.6" height="29.33"/><rect class="cls-7" x="741.49" y="17.64" width="28.71" height="28.44"/><rect class="cls-8" x="743.33" y="19.47" width="26.87" height="26.62"/><rect class="cls-9" x="743.33" y="19.47" width="25.02" height="24.79"/><rect class="cls-10" x="745.33" y="21.44" width="23.03" height="22.82"/><line class="cls-11" x1="751.94" y1="27.95" x2="760.69" y2="36.63"/><line class="cls-11" x1="760.69" y1="27.95" x2="751.94" y2="36.63"/><rect class="cls-6" x="707.17" y="17.64" width="29.6" height="29.33"/><rect class="cls-7" x="707.17" y="17.64" width="28.71" height="28.44"/><rect class="cls-8" x="709.02" y="19.47" width="26.87" height="26.62"/><rect class="cls-9" x="709.02" y="19.47" width="25.02" height="24.79"/><rect class="cls-10" x="711.01" y="21.44" width="23.03" height="22.82"/><rect class="cls-12" x="715.76" y="26.5" width="12.68" height="12.56"/><rect x="715.51" y="26.5" width="12.93" height="3.16"/><rect class="cls-6" x="672.86" y="17.64" width="29.6" height="29.33"/><rect class="cls-7" x="672.86" y="17.64" width="28.71" height="28.44"/><rect class="cls-8" x="674.7" y="19.47" width="26.87" height="26.62"/><rect class="cls-9" x="674.7" y="19.47" width="25.02" height="24.79"/><rect class="cls-10" x="676.7" y="21.44" width="23.03" height="22.82"/><rect x="681.19" y="37.14" width="12.93" height="2.65"/><rect class="cls-13" x="12.88" y="57.35" width="760.27" height="516.26"/><polyline class="cls-14" points="12.4 574.8 12.4 57.5 771.42 57.73"/><polyline class="cls-15" points="772.4 57.8 772.4 574.8 12.4 574.8"/><polyline class="cls-16" points="10.4 575.8 10.4 55.57 773.57 55.99"/><polyline class="cls-2" points="775.4 54.8 775.4 575.8 11.4 575.8"/><rect class="cls-6" x="319.67" y="600.01" width="145.46" height="59.93"/><rect class="cls-17" x="319.67" y="600.01" width="143.61" height="57.91"/><rect class="cls-18" x="322.04" y="602.34" width="141.24" height="55.57"/><rect class="cls-9" x="322.04" y="602.34" width="139.13" height="53.66"/><rect class="cls-10" x="324.15" y="604.26" width="137.03" height="51.75"/></g></g></svg>