<svg xmlns="http://www.w3.org/2000/svg" viewBox="0 0 394.01 441.54"><defs><style>.cls-1{fill:#c1c1c1;}.cls-11,.cls-12,.cls-14,.cls-15,.cls-16,.cls-2,.cls-3,.cls-4{fill:none;stroke-miterlimit:10;}.cls-2{stroke:#fefefe;}.cls-3{stroke:#313131;}.cls-4{stroke:#7f7f7f;}.cls-5{fill:#666;}.cls-6{fill:#3f3f3f;}.cls-7{fill:#d3d3d3;}.cls-8{fill:#8c8c8c;}.cls-9{fill:#e8e8e8;}.cls-10{fill:#d4d4d4;}.cls-11,.cls-12{stroke:#000;}.cls-11{stroke-width:2.01px;}.cls-12{stroke-width:1.5px;}.cls-13{fill:#fff;}.cls-14{stroke:gray;}.cls-15{stroke:#e6e6e6;}.cls-16{stroke:#a3a3a3;}.cls-17{fill:#d5d5d5;}.cls-18{fill:#8d8d8d;}</style></defs><title>Artboard 19</title><g id="Header"><g id="Lorem"><rect class="cls-1" width="394.01" height="441.24"/><polyline class="cls-2" points="393 2.04 2.5 2.04 2.5 440.54"/><polyline class="cls-3" points="393.5 1.54 393.5 441.04 0 441.04"/><polyline class="cls-4" points="392.5 2.54 392.5 440.04 3 440.04"/><rect class="cls-5" x="6.7" y="9.06" width="380.11" height="35.68"/><rect class="cls-6" x="353.4" y="12.64" width="29.33" height="29.33"/><rect class="cls-7" x="353.4" y="12.64" width="28.44" height="28.44"/><rect class="cls-8" x="355.23" y="14.47" width="26.62" height="26.62"/><rect class="cls-9" x="355.23" y="14.47" width="24.79" height="24.79"/><rect class="cls-10" x="357.2" y="16.44" width="22.82" height="22.82"/><line class="cls-11" x1="363.75" y1="22.95" x2="372.43" y2="31.63"/><line class="cls-11" x1="372.43" y1="22.95" x2="363.75" y2="31.63"/><rect class="cls-6" x="319.4" y="12.64" width="29.33" height="29.33"/><rect class="cls-7" x="319.4" y="12.64" width="28.44" height="28.44"/><rect class="cls-8" x="321.23" y="14.47" width="26.62" height="26.62"/><rect class="cls-9" x="321.23" y="14.47" width="24.79" height="24.79"/><rect class="cls-10" x="323.2" y="16.44" width="22.82" height="22.82"/><rect class="cls-12" x="327.91" y="21.5" width="12.56" height="12.56"/><rect x="327.66" y="21.5" width="12.81" height="3.16"/><rect class="cls-6" x="285.4" y="12.64" width="29.33" height="29.33"/><rect class="cls-7" x="285.4" y="12.64" width="28.44" height="28.44"/><rect class="cls-8" x="287.23" y="14.47" width="26.62" height="26.62"/><rect class="cls-9" x="287.23" y="14.47" width="24.79" height="24.79"/><rect class="cls-10" x="289.2" y="16.44" width="22.82" height="22.82"/><rect x="293.66" y="32.14" width="12.81" height="2.65"/><rect class="cls-13" x="8.53" y="50.24" width="377.01" height="283.32"/><polyline class="cls-14" points="8.5 334.54 8.5 50.33 384.89 50.62"/><polyline class="cls-15" points="385.5 49.54 385.5 334.04 9 334.04"/><polyline class="cls-16" points="7.5 335.54 7.5 49.27 385.94 49.89"/><polyline class="cls-2" points="386.5 48.54 386.5 335.04 8 335.04"/><rect class="cls-6" x="125.28" y="358.66" width="145.46" height="59.93"/><rect class="cls-17" x="125.28" y="358.66" width="143.61" height="57.91"/><rect class="cls-18" x="127.65" y="361" width="141.24" height="55.57"/><rect class="cls-9" x="127.65" y="361" width="139.13" height="53.66"/><rect class="cls-10" x="129.76" y="362.91" width="137.03" height="51.75"/></g></g></svg>