<svg xmlns="http://www.w3.org/2000/svg" viewBox="0 0 619 612.11"><defs><style>.cls-1{fill:#c1c1c1;}.cls-11,.cls-12,.cls-14,.cls-15,.cls-16,.cls-2,.cls-3,.cls-4{fill:none;stroke-miterlimit:10;}.cls-2{stroke:#fefefe;}.cls-3{stroke:#313131;}.cls-4{stroke:#7f7f7f;}.cls-5{fill:#666;}.cls-6{fill:#3f3f3f;}.cls-7{fill:#d3d3d3;}.cls-8{fill:#8c8c8c;}.cls-9{fill:#e8e8e8;}.cls-10{fill:#d4d4d4;}.cls-11,.cls-12{stroke:#000;}.cls-11{stroke-width:2.01px;}.cls-12{stroke-width:1.5px;}.cls-13{fill:#fff;}.cls-14{stroke:gray;}.cls-15{stroke:#e6e6e6;}.cls-16{stroke:#a3a3a3;}.cls-17{fill:#d5d5d5;}.cls-18{fill:#8d8d8d;}</style></defs><title>Artboard 18</title><g id="Header"><g id="Lorem"><rect class="cls-1" width="618.94" height="611.71"/><polyline class="cls-2" points="617 3.6 3.5 3.6 3.5 611.11"/><polyline class="cls-3" points="618.5 2.1 618.5 611.61 0 611.61"/><polyline class="cls-4" points="616.5 4.11 616.5 610.61 5 610.61"/><rect class="cls-5" x="14" y="11.23" width="590.8" height="35.68"/><rect class="cls-6" x="571.4" y="14.81" width="29.33" height="29.33"/><rect class="cls-7" x="571.4" y="14.81" width="28.44" height="28.44"/><rect class="cls-8" x="573.23" y="16.64" width="26.62" height="26.62"/><rect class="cls-9" x="573.23" y="16.64" width="24.79" height="24.79"/><rect class="cls-10" x="575.2" y="18.62" width="22.82" height="22.82"/><line class="cls-11" x1="581.75" y1="25.12" x2="590.43" y2="33.8"/><line class="cls-11" x1="590.43" y1="25.12" x2="581.75" y2="33.8"/><rect class="cls-6" x="537.4" y="14.81" width="29.33" height="29.33"/><rect class="cls-7" x="537.4" y="14.81" width="28.44" height="28.44"/><rect class="cls-8" x="539.23" y="16.64" width="26.62" height="26.62"/><rect class="cls-9" x="539.23" y="16.64" width="24.79" height="24.79"/><rect class="cls-10" x="541.2" y="18.62" width="22.82" height="22.82"/><rect class="cls-12" x="545.91" y="23.67" width="12.56" height="12.56"/><rect x="545.66" y="23.67" width="12.81" height="3.16"/><rect class="cls-6" x="503.4" y="14.81" width="29.33" height="29.33"/><rect class="cls-7" x="503.4" y="14.81" width="28.44" height="28.44"/><rect class="cls-8" x="505.23" y="16.64" width="26.62" height="26.62"/><rect class="cls-9" x="505.23" y="16.64" width="24.79" height="24.79"/><rect class="cls-10" x="507.2" y="18.62" width="22.82" height="22.82"/><rect x="511.66" y="34.31" width="12.81" height="2.65"/><rect class="cls-13" x="13.4" y="57.39" width="592.23" height="447.22"/><polyline class="cls-14" points="13.5 507.11 13.5 57.52 604.75 58.46"/><polyline class="cls-15" points="605.5 56.1 605.5 506.61 14 506.61"/><polyline class="cls-16" points="11.5 508.11 11.5 55.85 605.99 57.02"/><polyline class="cls-2" points="607.5 54.1 607.5 507.61 13 507.61"/><rect class="cls-6" x="235.61" y="530.47" width="145.46" height="59.93"/><rect class="cls-17" x="235.61" y="530.47" width="143.61" height="57.91"/><rect class="cls-18" x="237.98" y="532.8" width="141.24" height="55.57"/><rect class="cls-9" x="237.98" y="532.8" width="139.13" height="53.66"/><rect class="cls-10" x="240.09" y="534.71" width="137.03" height="51.75"/></g></g></svg>