<svg xmlns="http://www.w3.org/2000/svg" viewBox="0 0 964.14 721.8"><defs><style>.cls-1{fill:#c1c1c1;}.cls-11,.cls-12,.cls-14,.cls-15,.cls-16,.cls-2,.cls-3,.cls-4{fill:none;stroke-miterlimit:10;}.cls-2{stroke:#fefefe;}.cls-14,.cls-15,.cls-16,.cls-2,.cls-3,.cls-4{stroke-width:2px;}.cls-3{stroke:#313131;}.cls-4{stroke:#7f7f7f;}.cls-5{fill:#666;}.cls-6{fill:#3f3f3f;}.cls-7{fill:#d3d3d3;}.cls-8{fill:#8c8c8c;}.cls-9{fill:#e8e8e8;}.cls-10{fill:#d4d4d4;}.cls-11,.cls-12{stroke:#000;}.cls-11{stroke-width:2.01px;}.cls-12{stroke-width:1.5px;}.cls-13{fill:#fff;}.cls-14{stroke:gray;}.cls-15{stroke:#e6e6e6;}.cls-16{stroke:#a3a3a3;}.cls-17{fill:#d5d5d5;}.cls-18{fill:#8d8d8d;}</style></defs><title>Artboard 14</title><g id="Header"><g id="Lorem"><rect class="cls-1" width="964.14" height="721.07"/><polyline class="cls-2" points="962 3.8 6 3.8 6 720.8"/><polyline class="cls-3" points="963 2.8 963 720.8 0 720.8"/><polyline class="cls-4" points="960 4.8 960 719.8 7 719.8"/><rect class="cls-5" x="17.7" y="14.06" width="928.3" height="35.68"/><rect class="cls-6" x="912.4" y="17.64" width="29.33" height="29.33"/><rect class="cls-7" x="912.4" y="17.64" width="28.44" height="28.44"/><rect class="cls-8" x="914.23" y="19.47" width="26.62" height="26.62"/><rect class="cls-9" x="914.23" y="19.47" width="24.79" height="24.79"/><rect class="cls-10" x="916.2" y="21.44" width="22.82" height="22.82"/><line class="cls-11" x1="922.75" y1="27.95" x2="931.43" y2="36.63"/><line class="cls-11" x1="931.43" y1="27.95" x2="922.75" y2="36.63"/><rect class="cls-6" x="878.4" y="17.64" width="29.33" height="29.33"/><rect class="cls-7" x="878.4" y="17.64" width="28.44" height="28.44"/><rect class="cls-8" x="880.23" y="19.47" width="26.62" height="26.62"/><rect class="cls-9" x="880.23" y="19.47" width="24.79" height="24.79"/><rect class="cls-10" x="882.2" y="21.44" width="22.82" height="22.82"/><rect class="cls-12" x="886.91" y="26.5" width="12.56" height="12.56"/><rect x="886.66" y="26.5" width="12.81" height="3.16"/><rect class="cls-6" x="844.4" y="17.64" width="29.33" height="29.33"/><rect class="cls-7" x="844.4" y="17.64" width="28.44" height="28.44"/><rect class="cls-8" x="846.23" y="19.47" width="26.62" height="26.62"/><rect class="cls-9" x="846.23" y="19.47" width="24.79" height="24.79"/><rect class="cls-10" x="848.2" y="21.44" width="22.82" height="22.82"/><rect x="852.66" y="37.14" width="12.81" height="2.65"/><rect class="cls-13" x="20.88" y="60.48" width="922.54" height="567.34"/><polyline class="cls-14" points="21 629.8 21 60.64 942.02 61.24"/><polyline class="cls-15" points="943 60.8 943 629.8 22 629.8"/><polyline class="cls-16" points="18 631.8 18 58.52 944.05 59.77"/><polyline class="cls-2" points="946 57.8 946 630.8 20 630.8"/><rect class="cls-6" x="393.99" y="644.64" width="145.46" height="59.93"/><rect class="cls-17" x="393.99" y="644.64" width="143.61" height="57.91"/><rect class="cls-18" x="396.36" y="646.98" width="141.24" height="55.57"/><rect class="cls-9" x="396.36" y="646.98" width="139.13" height="53.66"/><rect class="cls-10" x="398.47" y="648.89" width="137.03" height="51.75"/></g></g></svg>