<svg xmlns="http://www.w3.org/2000/svg" viewBox="0 0 786.4 684.8"><defs><style>.cls-1{fill:#c1c1c1;}.cls-11,.cls-12,.cls-14,.cls-15,.cls-16,.cls-2,.cls-3,.cls-4{fill:none;stroke-miterlimit:10;}.cls-2{stroke:#fefefe;}.cls-14,.cls-15,.cls-16,.cls-2,.cls-3,.cls-4{stroke-width:2px;}.cls-3{stroke:#313131;}.cls-4{stroke:#7f7f7f;}.cls-5{fill:#666;}.cls-6{fill:#3f3f3f;}.cls-7{fill:#d3d3d3;}.cls-8{fill:#8c8c8c;}.cls-9{fill:#e8e8e8;}.cls-10{fill:#d4d4d4;}.cls-11,.cls-12{stroke:#000;}.cls-11{stroke-width:2.02px;}.cls-12{stroke-width:1.51px;}.cls-13{fill:#fff;}.cls-14{stroke:gray;}.cls-15{stroke:#e6e6e6;}.cls-16{stroke:#a3a3a3;}</style></defs><title>Artboard 26 copy</title><g id="Header"><g id="Lorem"><rect class="cls-1" width="786.01" height="683"/><polyline class="cls-2" points="784.4 3.79 5.4 3.79 5.4 683.79"/><polyline class="cls-3" points="785.4 2.79 785.4 683.79 0.4 683.79"/><polyline class="cls-4" points="783.4 4.79 783.4 681.79 5.4 681.79"/><rect class="cls-5" x="14.4" y="14.06" width="761" height="35.68"/><rect class="cls-6" x="741.49" y="17.64" width="29.6" height="29.33"/><rect class="cls-7" x="741.49" y="17.64" width="28.71" height="28.44"/><rect class="cls-8" x="743.33" y="19.47" width="26.87" height="26.62"/><rect class="cls-9" x="743.33" y="19.47" width="25.02" height="24.79"/><rect class="cls-10" x="745.33" y="21.44" width="23.03" height="22.82"/><line class="cls-11" x1="751.94" y1="27.95" x2="760.69" y2="36.63"/><line class="cls-11" x1="760.69" y1="27.95" x2="751.94" y2="36.63"/><rect class="cls-6" x="707.17" y="17.64" width="29.6" height="29.33"/><rect class="cls-7" x="707.17" y="17.64" width="28.71" height="28.44"/><rect class="cls-8" x="709.02" y="19.47" width="26.87" height="26.62"/><rect class="cls-9" x="709.02" y="19.47" width="25.02" height="24.79"/><rect class="cls-10" x="711.01" y="21.44" width="23.03" height="22.82"/><rect class="cls-12" x="715.76" y="26.5" width="12.68" height="12.56"/><rect x="715.51" y="26.5" width="12.93" height="3.16"/><rect class="cls-6" x="672.86" y="17.64" width="29.6" height="29.33"/><rect class="cls-7" x="672.86" y="17.64" width="28.71" height="28.44"/><rect class="cls-8" x="674.7" y="19.47" width="26.87" height="26.62"/><rect class="cls-9" x="674.7" y="19.47" width="25.02" height="24.79"/><rect class="cls-10" x="676.7" y="21.44" width="23.03" height="22.82"/><rect x="681.19" y="37.14" width="12.93" height="2.65"/><rect class="cls-13" x="12.88" y="57.82" width="760.27" height="610.27"/><polyline class="cls-14" points="12.4 669.79 12.4 57.99 771.42 58.42"/><polyline class="cls-15" points="772.4 58.79 772.4 669.79 12.4 669.79"/><polyline class="cls-16" points="10.4 670.79 10.4 55.71 773.57 56.27"/><polyline class="cls-2" points="775.4 54.79 775.4 670.79 11.4 670.79"/></g></g></svg>